<mxfile host="app.diagrams.net" agent="Mozilla/5.0 (Windows NT 10.0; Win64; x64) AppleWebKit/537.36 (KHTML, like Gecko) Chrome/140.0.0.0 Safari/537.36" version="28.2.5">
  <diagram name="Сторінка-1" id="fwmP6ukwmaeZyovXIIoL">
    <mxGraphModel dx="1026" dy="516" grid="1" gridSize="10" guides="1" tooltips="1" connect="1" arrows="1" fold="1" page="1" pageScale="1" pageWidth="827" pageHeight="1169" math="0" shadow="0">
      <root>
        <mxCell id="0" />
        <mxCell id="1" parent="0" />
        <mxCell id="5jexeZiEc5-Yu7QkXLLo-1" value="Guest" style="shape=umlActor;verticalLabelPosition=bottom;verticalAlign=top;html=1;outlineConnect=0;" parent="1" vertex="1">
          <mxGeometry x="110" y="150.5" width="30" height="60" as="geometry" />
        </mxCell>
        <mxCell id="5jexeZiEc5-Yu7QkXLLo-2" value="User" style="shape=umlActor;verticalLabelPosition=bottom;verticalAlign=top;html=1;outlineConnect=0;" parent="1" vertex="1">
          <mxGeometry x="110" y="292.5" width="30" height="60" as="geometry" />
        </mxCell>
        <mxCell id="5jexeZiEc5-Yu7QkXLLo-3" value="Club admin" style="shape=umlActor;verticalLabelPosition=bottom;verticalAlign=top;html=1;outlineConnect=0;" parent="1" vertex="1">
          <mxGeometry x="110" y="449.5" width="30" height="60" as="geometry" />
        </mxCell>
        <mxCell id="5jexeZiEc5-Yu7QkXLLo-4" value="Admin" style="shape=umlActor;verticalLabelPosition=bottom;verticalAlign=top;html=1;outlineConnect=0;" parent="1" vertex="1">
          <mxGeometry x="471" y="460.5" width="30" height="60" as="geometry" />
        </mxCell>
        <mxCell id="5jexeZiEc5-Yu7QkXLLo-5" value="Search for clubs" style="ellipse;whiteSpace=wrap;html=1;" parent="1" vertex="1">
          <mxGeometry x="304" y="140.5" width="100" height="32.5" as="geometry" />
        </mxCell>
        <mxCell id="5jexeZiEc5-Yu7QkXLLo-6" value="Sign Up" style="ellipse;whiteSpace=wrap;html=1;" parent="1" vertex="1">
          <mxGeometry x="170" y="150.5" width="100" height="32.5" as="geometry" />
        </mxCell>
        <mxCell id="5jexeZiEc5-Yu7QkXLLo-7" value="Sign In" style="ellipse;whiteSpace=wrap;html=1;" parent="1" vertex="1">
          <mxGeometry x="170" y="200.5" width="100" height="30" as="geometry" />
        </mxCell>
        <mxCell id="5jexeZiEc5-Yu7QkXLLo-8" value="Credential autentication" style="ellipse;whiteSpace=wrap;html=1;" parent="1" vertex="1">
          <mxGeometry x="320" y="183" width="100" height="30" as="geometry" />
        </mxCell>
        <mxCell id="5jexeZiEc5-Yu7QkXLLo-10" value="&amp;lt;&amp;lt;include&amp;gt;&amp;gt;" style="html=1;verticalAlign=bottom;endArrow=open;dashed=1;endSize=8;curved=0;rounded=0;exitX=1;exitY=0.5;exitDx=0;exitDy=0;entryX=0;entryY=0.5;entryDx=0;entryDy=0;" parent="1" edge="1">
          <mxGeometry x="-0.2249" y="-2" relative="1" as="geometry">
            <mxPoint x="270" y="215.5" as="sourcePoint" />
            <mxPoint x="320" y="198" as="targetPoint" />
            <mxPoint as="offset" />
          </mxGeometry>
        </mxCell>
        <mxCell id="5jexeZiEc5-Yu7QkXLLo-60" style="edgeStyle=orthogonalEdgeStyle;rounded=0;orthogonalLoop=1;jettySize=auto;html=1;exitX=0;exitY=0.3333333333333333;exitDx=0;exitDy=0;exitPerimeter=0;entryX=0.5;entryY=1;entryDx=0;entryDy=0;" parent="1" source="5jexeZiEc5-Yu7QkXLLo-11" target="5jexeZiEc5-Yu7QkXLLo-7" edge="1">
          <mxGeometry relative="1" as="geometry">
            <Array as="points">
              <mxPoint x="450" y="170.5" />
              <mxPoint x="450" y="240.5" />
              <mxPoint x="220" y="240.5" />
            </Array>
          </mxGeometry>
        </mxCell>
        <mxCell id="5jexeZiEc5-Yu7QkXLLo-65" style="edgeStyle=orthogonalEdgeStyle;rounded=0;orthogonalLoop=1;jettySize=auto;html=1;exitX=1;exitY=0.3333333333333333;exitDx=0;exitDy=0;exitPerimeter=0;" parent="1" source="5jexeZiEc5-Yu7QkXLLo-11" target="5jexeZiEc5-Yu7QkXLLo-63" edge="1">
          <mxGeometry relative="1" as="geometry" />
        </mxCell>
        <mxCell id="5jexeZiEc5-Yu7QkXLLo-11" value="Social networcs" style="shape=umlActor;verticalLabelPosition=bottom;verticalAlign=top;html=1;outlineConnect=0;" parent="1" vertex="1">
          <mxGeometry x="500" y="150.5" width="30" height="60" as="geometry" />
        </mxCell>
        <mxCell id="5jexeZiEc5-Yu7QkXLLo-12" value="" style="endArrow=none;html=1;rounded=0;" parent="1" edge="1">
          <mxGeometry width="50" height="50" relative="1" as="geometry">
            <mxPoint x="150" y="215.5" as="sourcePoint" />
            <mxPoint x="150" y="130.5" as="targetPoint" />
          </mxGeometry>
        </mxCell>
        <mxCell id="5jexeZiEc5-Yu7QkXLLo-13" value="" style="endArrow=none;html=1;rounded=0;" parent="1" edge="1">
          <mxGeometry width="50" height="50" relative="1" as="geometry">
            <mxPoint x="354" y="130.5" as="sourcePoint" />
            <mxPoint x="149" y="130.5" as="targetPoint" />
          </mxGeometry>
        </mxCell>
        <mxCell id="5jexeZiEc5-Yu7QkXLLo-14" value="" style="endArrow=classic;html=1;rounded=0;" parent="1" edge="1">
          <mxGeometry width="50" height="50" relative="1" as="geometry">
            <mxPoint x="353.88" y="130.5" as="sourcePoint" />
            <mxPoint x="353.88" y="140.5" as="targetPoint" />
          </mxGeometry>
        </mxCell>
        <mxCell id="5jexeZiEc5-Yu7QkXLLo-15" value="" style="endArrow=classic;html=1;rounded=0;" parent="1" edge="1">
          <mxGeometry width="50" height="50" relative="1" as="geometry">
            <mxPoint x="150" y="164.5" as="sourcePoint" />
            <mxPoint x="170" y="164.5" as="targetPoint" />
          </mxGeometry>
        </mxCell>
        <mxCell id="5jexeZiEc5-Yu7QkXLLo-16" value="" style="endArrow=classic;html=1;rounded=0;" parent="1" edge="1">
          <mxGeometry width="50" height="50" relative="1" as="geometry">
            <mxPoint x="150" y="215" as="sourcePoint" />
            <mxPoint x="170" y="215" as="targetPoint" />
          </mxGeometry>
        </mxCell>
        <mxCell id="5jexeZiEc5-Yu7QkXLLo-21" value="" style="edgeStyle=none;html=1;endArrow=block;endFill=0;endSize=12;verticalAlign=bottom;rounded=0;" parent="1" edge="1">
          <mxGeometry width="160" relative="1" as="geometry">
            <mxPoint x="125" y="289.5" as="sourcePoint" />
            <mxPoint x="125" y="229.5" as="targetPoint" />
          </mxGeometry>
        </mxCell>
        <mxCell id="5jexeZiEc5-Yu7QkXLLo-22" value="" style="endArrow=none;html=1;rounded=0;" parent="1" edge="1">
          <mxGeometry width="50" height="50" relative="1" as="geometry">
            <mxPoint x="130" y="170.5" as="sourcePoint" />
            <mxPoint x="150" y="170.5" as="targetPoint" />
          </mxGeometry>
        </mxCell>
        <mxCell id="5jexeZiEc5-Yu7QkXLLo-24" value="Join the club&amp;nbsp;" style="ellipse;whiteSpace=wrap;html=1;" parent="1" vertex="1">
          <mxGeometry x="170" y="260.5" width="100" height="30" as="geometry" />
        </mxCell>
        <mxCell id="5jexeZiEc5-Yu7QkXLLo-25" value="Leave the club" style="ellipse;whiteSpace=wrap;html=1;" parent="1" vertex="1">
          <mxGeometry x="281" y="260.5" width="100" height="30" as="geometry" />
        </mxCell>
        <mxCell id="5jexeZiEc5-Yu7QkXLLo-26" value="View club events" style="ellipse;whiteSpace=wrap;html=1;" parent="1" vertex="1">
          <mxGeometry x="280" y="339.5" width="100" height="30" as="geometry" />
        </mxCell>
        <mxCell id="5jexeZiEc5-Yu7QkXLLo-30" value="Check out famous clubs" style="ellipse;whiteSpace=wrap;html=1;" parent="1" vertex="1">
          <mxGeometry x="240" y="307.5" width="100" height="30" as="geometry" />
        </mxCell>
        <mxCell id="5jexeZiEc5-Yu7QkXLLo-31" value="&amp;lt;&amp;lt;extend&amp;gt;&amp;gt;" style="html=1;verticalAlign=bottom;endArrow=open;dashed=1;endSize=8;curved=0;rounded=0;entryX=0.5;entryY=1;entryDx=0;entryDy=0;" parent="1" source="5jexeZiEc5-Yu7QkXLLo-30" edge="1">
          <mxGeometry x="-0.0613" y="10" relative="1" as="geometry">
            <mxPoint x="239" y="310.5" as="sourcePoint" />
            <mxPoint x="219" y="290.5" as="targetPoint" />
            <mxPoint as="offset" />
          </mxGeometry>
        </mxCell>
        <mxCell id="5jexeZiEc5-Yu7QkXLLo-33" value="Edit profile" style="ellipse;whiteSpace=wrap;html=1;" parent="1" vertex="1">
          <mxGeometry x="500" y="260.5" width="100" height="30" as="geometry" />
        </mxCell>
        <mxCell id="5jexeZiEc5-Yu7QkXLLo-34" value="Add friends" style="ellipse;whiteSpace=wrap;html=1;" parent="1" vertex="1">
          <mxGeometry x="390" y="339.5" width="100" height="30" as="geometry" />
        </mxCell>
        <mxCell id="5jexeZiEc5-Yu7QkXLLo-38" value="Club review" style="ellipse;whiteSpace=wrap;html=1;" parent="1" vertex="1">
          <mxGeometry x="390" y="260.5" width="100" height="30" as="geometry" />
        </mxCell>
        <mxCell id="5jexeZiEc5-Yu7QkXLLo-39" value="" style="endArrow=none;html=1;rounded=0;" parent="1" edge="1">
          <mxGeometry width="50" height="50" relative="1" as="geometry">
            <mxPoint x="150" y="380.5" as="sourcePoint" />
            <mxPoint x="150" y="250.5" as="targetPoint" />
          </mxGeometry>
        </mxCell>
        <mxCell id="5jexeZiEc5-Yu7QkXLLo-40" value="" style="endArrow=none;html=1;rounded=0;" parent="1" edge="1">
          <mxGeometry width="50" height="50" relative="1" as="geometry">
            <mxPoint x="550" y="250.5" as="sourcePoint" />
            <mxPoint x="150" y="250.5" as="targetPoint" />
          </mxGeometry>
        </mxCell>
        <mxCell id="5jexeZiEc5-Yu7QkXLLo-41" value="" style="endArrow=classic;html=1;rounded=0;entryX=0.5;entryY=0;entryDx=0;entryDy=0;" parent="1" target="5jexeZiEc5-Yu7QkXLLo-24" edge="1">
          <mxGeometry width="50" height="50" relative="1" as="geometry">
            <mxPoint x="220" y="250.5" as="sourcePoint" />
            <mxPoint x="304" y="218" as="targetPoint" />
          </mxGeometry>
        </mxCell>
        <mxCell id="5jexeZiEc5-Yu7QkXLLo-43" value="" style="endArrow=classic;html=1;rounded=0;entryX=0.5;entryY=0;entryDx=0;entryDy=0;" parent="1" edge="1">
          <mxGeometry width="50" height="50" relative="1" as="geometry">
            <mxPoint x="330" y="250.5" as="sourcePoint" />
            <mxPoint x="330" y="260.5" as="targetPoint" />
          </mxGeometry>
        </mxCell>
        <mxCell id="5jexeZiEc5-Yu7QkXLLo-44" value="" style="endArrow=classic;html=1;rounded=0;entryX=0.5;entryY=0;entryDx=0;entryDy=0;" parent="1" edge="1">
          <mxGeometry width="50" height="50" relative="1" as="geometry">
            <mxPoint x="440" y="250.5" as="sourcePoint" />
            <mxPoint x="440" y="260.5" as="targetPoint" />
          </mxGeometry>
        </mxCell>
        <mxCell id="5jexeZiEc5-Yu7QkXLLo-45" value="" style="endArrow=none;html=1;rounded=0;" parent="1" edge="1">
          <mxGeometry width="50" height="50" relative="1" as="geometry">
            <mxPoint x="550" y="380.5" as="sourcePoint" />
            <mxPoint x="150" y="380.5" as="targetPoint" />
          </mxGeometry>
        </mxCell>
        <mxCell id="5jexeZiEc5-Yu7QkXLLo-46" value="" style="endArrow=classic;html=1;rounded=0;entryX=0.5;entryY=1;entryDx=0;entryDy=0;" parent="1" edge="1">
          <mxGeometry width="50" height="50" relative="1" as="geometry">
            <mxPoint x="220" y="380.5" as="sourcePoint" />
            <mxPoint x="220" y="368.5" as="targetPoint" />
          </mxGeometry>
        </mxCell>
        <mxCell id="5jexeZiEc5-Yu7QkXLLo-47" value="" style="endArrow=classic;html=1;rounded=0;entryX=0.5;entryY=1;entryDx=0;entryDy=0;" parent="1" edge="1">
          <mxGeometry width="50" height="50" relative="1" as="geometry">
            <mxPoint x="330" y="380.5" as="sourcePoint" />
            <mxPoint x="330" y="368.5" as="targetPoint" />
          </mxGeometry>
        </mxCell>
        <mxCell id="5jexeZiEc5-Yu7QkXLLo-48" value="" style="endArrow=classic;html=1;rounded=0;entryX=0.5;entryY=1;entryDx=0;entryDy=0;" parent="1" edge="1">
          <mxGeometry width="50" height="50" relative="1" as="geometry">
            <mxPoint x="439.80999999999995" y="381.5" as="sourcePoint" />
            <mxPoint x="439.80999999999995" y="369.5" as="targetPoint" />
          </mxGeometry>
        </mxCell>
        <mxCell id="5jexeZiEc5-Yu7QkXLLo-54" value="Chatting" style="ellipse;whiteSpace=wrap;html=1;" parent="1" vertex="1">
          <mxGeometry x="498" y="339.5" width="100" height="30" as="geometry" />
        </mxCell>
        <mxCell id="5jexeZiEc5-Yu7QkXLLo-55" value="Participation in club events" style="ellipse;whiteSpace=wrap;html=1;" parent="1" vertex="1">
          <mxGeometry x="172" y="337.5" width="100" height="30" as="geometry" />
        </mxCell>
        <mxCell id="5jexeZiEc5-Yu7QkXLLo-56" value="" style="endArrow=classic;html=1;rounded=0;" parent="1" edge="1">
          <mxGeometry width="50" height="50" relative="1" as="geometry">
            <mxPoint x="550" y="250.5" as="sourcePoint" />
            <mxPoint x="550" y="260.5" as="targetPoint" />
          </mxGeometry>
        </mxCell>
        <mxCell id="5jexeZiEc5-Yu7QkXLLo-57" value="" style="endArrow=classic;html=1;rounded=0;" parent="1" edge="1">
          <mxGeometry width="50" height="50" relative="1" as="geometry">
            <mxPoint x="550" y="380.5" as="sourcePoint" />
            <mxPoint x="550" y="369.5" as="targetPoint" />
          </mxGeometry>
        </mxCell>
        <mxCell id="5jexeZiEc5-Yu7QkXLLo-62" value="&lt;&lt;API&gt;&gt;" style="text;whiteSpace=wrap;" parent="1" vertex="1">
          <mxGeometry x="490" y="130" width="180" height="40" as="geometry" />
        </mxCell>
        <mxCell id="5jexeZiEc5-Yu7QkXLLo-63" value="Add SN" style="ellipse;whiteSpace=wrap;html=1;" parent="1" vertex="1">
          <mxGeometry x="573" y="303.5" width="100" height="30" as="geometry" />
        </mxCell>
        <mxCell id="5jexeZiEc5-Yu7QkXLLo-64" value="&amp;lt;&amp;lt;extend&amp;gt;&amp;gt;" style="html=1;verticalAlign=bottom;endArrow=open;dashed=1;endSize=8;curved=0;rounded=0;entryX=0.5;entryY=1;entryDx=0;entryDy=0;exitX=0.5;exitY=0;exitDx=0;exitDy=0;" parent="1" source="5jexeZiEc5-Yu7QkXLLo-63" target="5jexeZiEc5-Yu7QkXLLo-33" edge="1">
          <mxGeometry x="-0.0613" y="10" relative="1" as="geometry">
            <mxPoint x="463" y="300.5" as="sourcePoint" />
            <mxPoint x="420" y="280.5" as="targetPoint" />
            <mxPoint as="offset" />
          </mxGeometry>
        </mxCell>
        <mxCell id="5jexeZiEc5-Yu7QkXLLo-66" value="" style="edgeStyle=none;html=1;endArrow=block;endFill=0;endSize=12;verticalAlign=bottom;rounded=0;" parent="1" edge="1">
          <mxGeometry width="160" relative="1" as="geometry">
            <mxPoint x="125" y="443.5" as="sourcePoint" />
            <mxPoint x="125.44" y="376.5" as="targetPoint" />
          </mxGeometry>
        </mxCell>
        <mxCell id="5jexeZiEc5-Yu7QkXLLo-67" value="" style="endArrow=none;html=1;rounded=0;exitX=1;exitY=0.3333333333333333;exitDx=0;exitDy=0;exitPerimeter=0;" parent="1" source="5jexeZiEc5-Yu7QkXLLo-2" edge="1">
          <mxGeometry width="50" height="50" relative="1" as="geometry">
            <mxPoint x="140" y="160.5" as="sourcePoint" />
            <mxPoint x="150" y="312.5" as="targetPoint" />
          </mxGeometry>
        </mxCell>
        <mxCell id="5jexeZiEc5-Yu7QkXLLo-68" value="Create club" style="ellipse;whiteSpace=wrap;html=1;" parent="1" vertex="1">
          <mxGeometry x="154" y="398.5" width="100" height="30" as="geometry" />
        </mxCell>
        <mxCell id="5jexeZiEc5-Yu7QkXLLo-69" value="Delete club" style="ellipse;whiteSpace=wrap;html=1;" parent="1" vertex="1">
          <mxGeometry x="268" y="398.5" width="100" height="30" as="geometry" />
        </mxCell>
        <mxCell id="5jexeZiEc5-Yu7QkXLLo-70" value="Edit club" style="ellipse;whiteSpace=wrap;html=1;" parent="1" vertex="1">
          <mxGeometry x="154" y="438.5" width="100" height="30" as="geometry" />
        </mxCell>
        <mxCell id="5jexeZiEc5-Yu7QkXLLo-71" value="Club moderation" style="ellipse;whiteSpace=wrap;html=1;" parent="1" vertex="1">
          <mxGeometry x="271" y="439.5" width="100" height="30" as="geometry" />
        </mxCell>
        <mxCell id="5jexeZiEc5-Yu7QkXLLo-72" value="Create event" style="ellipse;whiteSpace=wrap;html=1;" parent="1" vertex="1">
          <mxGeometry x="381" y="439.5" width="100" height="30" as="geometry" />
        </mxCell>
        <mxCell id="5jexeZiEc5-Yu7QkXLLo-73" value="Notify participants" style="ellipse;whiteSpace=wrap;html=1;" parent="1" vertex="1">
          <mxGeometry x="371" y="385.5" width="100" height="30" as="geometry" />
        </mxCell>
        <mxCell id="5jexeZiEc5-Yu7QkXLLo-78" value="" style="endArrow=none;html=1;rounded=0;" parent="1" edge="1">
          <mxGeometry width="50" height="50" relative="1" as="geometry">
            <mxPoint x="150" y="480.5" as="sourcePoint" />
            <mxPoint x="150" y="389.5" as="targetPoint" />
          </mxGeometry>
        </mxCell>
        <mxCell id="5jexeZiEc5-Yu7QkXLLo-79" value="" style="endArrow=none;html=1;rounded=0;" parent="1" edge="1">
          <mxGeometry width="50" height="50" relative="1" as="geometry">
            <mxPoint x="320" y="390.5" as="sourcePoint" />
            <mxPoint x="150" y="389.5" as="targetPoint" />
          </mxGeometry>
        </mxCell>
        <mxCell id="5jexeZiEc5-Yu7QkXLLo-80" value="" style="endArrow=none;html=1;rounded=0;" parent="1" edge="1">
          <mxGeometry width="50" height="50" relative="1" as="geometry">
            <mxPoint x="430" y="480.5" as="sourcePoint" />
            <mxPoint x="150" y="480.5" as="targetPoint" />
          </mxGeometry>
        </mxCell>
        <mxCell id="5jexeZiEc5-Yu7QkXLLo-81" value="" style="endArrow=classic;html=1;rounded=0;entryX=0.5;entryY=1;entryDx=0;entryDy=0;" parent="1" edge="1">
          <mxGeometry width="50" height="50" relative="1" as="geometry">
            <mxPoint x="200" y="480.5" as="sourcePoint" />
            <mxPoint x="200" y="468.5" as="targetPoint" />
          </mxGeometry>
        </mxCell>
        <mxCell id="5jexeZiEc5-Yu7QkXLLo-82" value="" style="endArrow=classic;html=1;rounded=0;entryX=0.5;entryY=1;entryDx=0;entryDy=0;" parent="1" edge="1">
          <mxGeometry width="50" height="50" relative="1" as="geometry">
            <mxPoint x="317.82" y="480.5" as="sourcePoint" />
            <mxPoint x="317.82" y="468.5" as="targetPoint" />
          </mxGeometry>
        </mxCell>
        <mxCell id="5jexeZiEc5-Yu7QkXLLo-83" value="" style="endArrow=classic;html=1;rounded=0;entryX=0.5;entryY=1;entryDx=0;entryDy=0;" parent="1" edge="1">
          <mxGeometry width="50" height="50" relative="1" as="geometry">
            <mxPoint x="429.78999999999996" y="480.5" as="sourcePoint" />
            <mxPoint x="429.78999999999996" y="468.5" as="targetPoint" />
          </mxGeometry>
        </mxCell>
        <mxCell id="5jexeZiEc5-Yu7QkXLLo-84" value="" style="endArrow=classic;html=1;rounded=0;entryX=0.5;entryY=1;entryDx=0;entryDy=0;" parent="1" edge="1">
          <mxGeometry width="50" height="50" relative="1" as="geometry">
            <mxPoint x="318" y="390.5" as="sourcePoint" />
            <mxPoint x="318" y="398.5" as="targetPoint" />
          </mxGeometry>
        </mxCell>
        <mxCell id="5jexeZiEc5-Yu7QkXLLo-85" value="" style="endArrow=classic;html=1;rounded=0;entryX=0.5;entryY=0;entryDx=0;entryDy=0;" parent="1" target="5jexeZiEc5-Yu7QkXLLo-68" edge="1">
          <mxGeometry width="50" height="50" relative="1" as="geometry">
            <mxPoint x="204" y="390.5" as="sourcePoint" />
            <mxPoint x="310" y="390.5" as="targetPoint" />
          </mxGeometry>
        </mxCell>
        <mxCell id="5jexeZiEc5-Yu7QkXLLo-87" value="&amp;lt;&amp;lt;include&amp;gt;&amp;gt;" style="html=1;verticalAlign=bottom;endArrow=open;dashed=1;endSize=8;curved=0;rounded=0;exitX=1;exitY=0.5;exitDx=0;exitDy=0;entryX=0;entryY=1;entryDx=0;entryDy=0;" parent="1" target="5jexeZiEc5-Yu7QkXLLo-73" edge="1">
          <mxGeometry x="0.1039" y="8" relative="1" as="geometry">
            <mxPoint x="447" y="439" as="sourcePoint" />
            <mxPoint x="490" y="421.5" as="targetPoint" />
            <mxPoint as="offset" />
          </mxGeometry>
        </mxCell>
        <mxCell id="5jexeZiEc5-Yu7QkXLLo-89" style="edgeStyle=orthogonalEdgeStyle;rounded=0;orthogonalLoop=1;jettySize=auto;html=1;exitX=0;exitY=0.3333333333333333;exitDx=0;exitDy=0;exitPerimeter=0;entryX=1;entryY=0.5;entryDx=0;entryDy=0;" parent="1" source="5jexeZiEc5-Yu7QkXLLo-88" target="5jexeZiEc5-Yu7QkXLLo-73" edge="1">
          <mxGeometry relative="1" as="geometry">
            <Array as="points">
              <mxPoint x="580" y="372.5" />
              <mxPoint x="580" y="400.5" />
            </Array>
          </mxGeometry>
        </mxCell>
        <mxCell id="5jexeZiEc5-Yu7QkXLLo-88" value="Notification" style="shape=umlActor;verticalLabelPosition=bottom;verticalAlign=top;html=1;outlineConnect=0;" parent="1" vertex="1">
          <mxGeometry x="653" y="352.5" width="30" height="60" as="geometry" />
        </mxCell>
        <mxCell id="5jexeZiEc5-Yu7QkXLLo-90" value="&lt;&lt;Servise&gt;&gt;" style="text;whiteSpace=wrap;" parent="1" vertex="1">
          <mxGeometry x="640" y="327.5" width="180" height="40" as="geometry" />
        </mxCell>
        <mxCell id="5jexeZiEc5-Yu7QkXLLo-91" value="" style="edgeStyle=none;html=1;endArrow=block;endFill=0;endSize=12;verticalAlign=bottom;rounded=0;" parent="1" edge="1">
          <mxGeometry width="160" relative="1" as="geometry">
            <mxPoint x="470" y="500.5" as="sourcePoint" />
            <mxPoint x="150" y="500.5" as="targetPoint" />
          </mxGeometry>
        </mxCell>
        <mxCell id="5jexeZiEc5-Yu7QkXLLo-92" value="Manage users" style="ellipse;whiteSpace=wrap;html=1;" parent="1" vertex="1">
          <mxGeometry x="518" y="465.5" width="100" height="30" as="geometry" />
        </mxCell>
        <mxCell id="5jexeZiEc5-Yu7QkXLLo-93" value="Manage club admins" style="ellipse;whiteSpace=wrap;html=1;" parent="1" vertex="1">
          <mxGeometry x="740" y="466.5" width="100" height="30" as="geometry" />
        </mxCell>
        <mxCell id="5jexeZiEc5-Yu7QkXLLo-94" value="Block clubs" style="ellipse;whiteSpace=wrap;html=1;" parent="1" vertex="1">
          <mxGeometry x="629" y="466.5" width="100" height="30" as="geometry" />
        </mxCell>
        <mxCell id="5jexeZiEc5-Yu7QkXLLo-96" value="Send an alert" style="ellipse;whiteSpace=wrap;html=1;" parent="1" vertex="1">
          <mxGeometry x="518" y="425.5" width="100" height="30" as="geometry" />
        </mxCell>
        <mxCell id="5jexeZiEc5-Yu7QkXLLo-97" value="" style="endArrow=none;html=1;rounded=0;" parent="1" edge="1">
          <mxGeometry width="50" height="50" relative="1" as="geometry">
            <mxPoint x="502" y="510.5" as="sourcePoint" />
            <mxPoint x="502" y="440.5" as="targetPoint" />
          </mxGeometry>
        </mxCell>
        <mxCell id="5jexeZiEc5-Yu7QkXLLo-98" value="" style="endArrow=classic;html=1;rounded=0;" parent="1" edge="1">
          <mxGeometry width="50" height="50" relative="1" as="geometry">
            <mxPoint x="502" y="440.5" as="sourcePoint" />
            <mxPoint x="519" y="440.5" as="targetPoint" />
          </mxGeometry>
        </mxCell>
        <mxCell id="5jexeZiEc5-Yu7QkXLLo-99" value="" style="endArrow=none;html=1;rounded=0;" parent="1" edge="1">
          <mxGeometry width="50" height="50" relative="1" as="geometry">
            <mxPoint x="502" y="510.5" as="sourcePoint" />
            <mxPoint x="790" y="510.5" as="targetPoint" />
          </mxGeometry>
        </mxCell>
        <mxCell id="5jexeZiEc5-Yu7QkXLLo-100" value="" style="endArrow=classic;html=1;rounded=0;" parent="1" edge="1">
          <mxGeometry width="50" height="50" relative="1" as="geometry">
            <mxPoint x="570" y="510.5" as="sourcePoint" />
            <mxPoint x="570" y="495.5" as="targetPoint" />
          </mxGeometry>
        </mxCell>
        <mxCell id="5jexeZiEc5-Yu7QkXLLo-101" value="" style="endArrow=classic;html=1;rounded=0;" parent="1" edge="1">
          <mxGeometry width="50" height="50" relative="1" as="geometry">
            <mxPoint x="678.81" y="511.5" as="sourcePoint" />
            <mxPoint x="678.81" y="496.5" as="targetPoint" />
          </mxGeometry>
        </mxCell>
        <mxCell id="5jexeZiEc5-Yu7QkXLLo-102" value="" style="endArrow=classic;html=1;rounded=0;entryX=0.5;entryY=1;entryDx=0;entryDy=0;" parent="1" target="5jexeZiEc5-Yu7QkXLLo-93" edge="1">
          <mxGeometry width="50" height="50" relative="1" as="geometry">
            <mxPoint x="790" y="510.5" as="sourcePoint" />
            <mxPoint x="760" y="540.5" as="targetPoint" />
          </mxGeometry>
        </mxCell>
        <mxCell id="5jexeZiEc5-Yu7QkXLLo-104" value="" style="endArrow=none;html=1;rounded=0;" parent="1" edge="1">
          <mxGeometry width="50" height="50" relative="1" as="geometry">
            <mxPoint x="90" y="550" as="sourcePoint" />
            <mxPoint x="90" y="100" as="targetPoint" />
          </mxGeometry>
        </mxCell>
        <mxCell id="5jexeZiEc5-Yu7QkXLLo-105" value="Clubs by interest" style="text;html=1;align=center;verticalAlign=middle;resizable=0;points=[];autosize=1;strokeColor=none;fillColor=none;" parent="1" vertex="1">
          <mxGeometry x="400" y="86" width="110" height="30" as="geometry" />
        </mxCell>
        <mxCell id="5jexeZiEc5-Yu7QkXLLo-106" value="" style="endArrow=none;html=1;rounded=0;exitX=-0.002;exitY=0.487;exitDx=0;exitDy=0;exitPerimeter=0;" parent="1" source="5jexeZiEc5-Yu7QkXLLo-105" edge="1">
          <mxGeometry width="50" height="50" relative="1" as="geometry">
            <mxPoint x="320" y="100" as="sourcePoint" />
            <mxPoint x="90" y="100" as="targetPoint" />
          </mxGeometry>
        </mxCell>
        <mxCell id="5jexeZiEc5-Yu7QkXLLo-107" value="" style="endArrow=none;html=1;rounded=0;" parent="1" edge="1">
          <mxGeometry width="50" height="50" relative="1" as="geometry">
            <mxPoint x="860" y="550" as="sourcePoint" />
            <mxPoint x="90" y="550" as="targetPoint" />
          </mxGeometry>
        </mxCell>
        <mxCell id="5jexeZiEc5-Yu7QkXLLo-108" value="" style="endArrow=none;html=1;rounded=0;" parent="1" edge="1">
          <mxGeometry width="50" height="50" relative="1" as="geometry">
            <mxPoint x="850" y="550" as="sourcePoint" />
            <mxPoint x="850" y="100" as="targetPoint" />
          </mxGeometry>
        </mxCell>
        <mxCell id="5jexeZiEc5-Yu7QkXLLo-109" value="" style="endArrow=none;html=1;rounded=0;exitX=0.976;exitY=0.458;exitDx=0;exitDy=0;exitPerimeter=0;" parent="1" source="5jexeZiEc5-Yu7QkXLLo-105" edge="1">
          <mxGeometry width="50" height="50" relative="1" as="geometry">
            <mxPoint x="480" y="130" as="sourcePoint" />
            <mxPoint x="850" y="100" as="targetPoint" />
          </mxGeometry>
        </mxCell>
      </root>
    </mxGraphModel>
  </diagram>
</mxfile>
